<?xml version="1.0"?><svg width="640" height="480" xmlns="http://www.w3.org/2000/svg">
 <!-- Created with SVG-edit - http://svg-edit.googlecode.com/ -->

 <g>
  <title>Layer 1</title>
  <g id="Layer_x0020_1">
   <metadata id="svg_2"/>
   <g id="svg_3">
    <path d="m303.554413,185.172195c-34.691833,20.029373 18.241058,119.262375 56.2034,97.345078c6.741577,11.676453 28.455688,49.288727 35.197266,60.964569c-16.016846,9.247711 -29.574738,15.078064 -48.144196,4.46225c-51.558868,-29.473053 -108.311615,-127.736572 -106.697006,-186.345779c0.561127,-20.356476 12.554901,-28.33374 28.24263,-37.39135c6.742218,11.677132 28.456329,49.288765 35.197906,60.965233l0,0z" class="fil0" id="svg_4"/>
    <path d="m318.107391,183.518936c-3.748352,2.16391 -8.572479,0.871857 -10.737061,-2.877197l-33.182129,-57.473152c-2.164612,-3.749039 -0.872528,-8.571823 2.876495,-10.736427l17.439362,-10.069092c3.748993,-2.164597 8.57312,-0.871872 10.737732,2.877151l33.182129,57.472519c2.16391,3.748383 0.871857,8.572495 -2.876526,10.737106l-17.440002,10.069092z" class="fil0" id="svg_5"/>
    <path d="m408.758087,340.530609c-3.748383,2.16394 -8.572479,0.872528 -10.737061,-2.876526l-33.182129,-57.473816c-2.164612,-3.748383 -0.872528,-8.571838 2.875854,-10.73645l17.439972,-10.069061c3.748383,-2.16394 8.573151,-0.870544 10.737091,2.877136l33.182129,57.473175c2.164612,3.749054 0.872528,8.57251 -2.875854,10.737091l-17.440002,10.068451z" class="fil0" id="svg_6"/>
   </g>
   <path d="m335.11734,41.860649l0.002625,0l0,0.04327c51.274414,0.001305 97.676819,20.764889 131.241058,54.329838c33.562347,33.563652 54.325989,79.96212 54.327942,131.235847l0.043274,0l0,0.005219l0,0.003311l-0.043274,0c-0.001343,51.274368 -20.765594,97.676743 -54.329895,131.240402c-33.563629,33.563019 -79.963409,54.326599 -131.23645,54.328552l0,0.042603l-0.00528,0l-0.003265,0l0,-0.042603c-51.274353,-0.001312 -97.676102,-20.765533 -131.240417,-54.329865c-33.562988,-33.564301 -54.325928,-79.96405 -54.327209,-131.23645l-0.043289,0l0,-0.005951l0,-0.002594l0.043289,0c0.000641,-51.274399 20.764221,-97.676132 54.329163,-131.241081c33.563675,-33.56234 79.962799,-54.325924 131.23587,-54.327229l0,-0.04327l0.005859,0zm0.002625,22.138908l0,0.043251l-0.002625,0l-0.005859,0l0,-0.043251c-45.091339,0.001953 -85.950516,18.314468 -115.552048,47.916039c-29.603561,29.602867 -47.917358,70.463997 -47.917358,115.556633l0.043243,0l0,0.002594l0,0.005951l-0.043243,0c0.000641,45.091309 18.313797,85.949799 47.915359,115.552032c29.603531,29.604187 70.463348,47.917328 115.556641,47.917328l0,-0.042603l0.003265,0l0.00528,0l0,0.042603c45.091949,-0.000641 85.95047,-18.313141 115.552704,-47.914734c29.603546,-29.602875 47.917358,-70.463989 47.917358,-115.557266l-0.043304,0l0,-0.003311l0,-0.005219l0.043304,0c-0.001343,-45.091324 -18.313812,-85.950485 -47.915405,-115.552048c-29.602905,-29.603531 -70.463348,-47.917358 -115.557312,-47.917999z" class="fil1" id="svg_7"/>
  </g>
 </g>
</svg>